<mxfile host="Electron" modified="2023-06-04T20:18:37.558Z" agent="Mozilla/5.0 (X11; Linux x86_64) AppleWebKit/537.36 (KHTML, like Gecko) draw.io/21.2.8 Chrome/112.0.5615.165 Electron/24.2.0 Safari/537.36" etag="mAOA4eYO11Q8KzdZ9w8c" version="21.2.8" type="device">
  <diagram id="C5RBs43oDa-KdzZeNtuy" name="Page-1">
    <mxGraphModel dx="462" dy="822" grid="1" gridSize="10" guides="1" tooltips="1" connect="1" arrows="1" fold="1" page="1" pageScale="1" pageWidth="827" pageHeight="1169" math="0" shadow="0">
      <root>
        <mxCell id="WIyWlLk6GJQsqaUBKTNV-0" />
        <mxCell id="WIyWlLk6GJQsqaUBKTNV-1" parent="WIyWlLk6GJQsqaUBKTNV-0" />
        <mxCell id="2u_29QZsNKRQgDJ0NMnE-3" value="" style="edgeStyle=orthogonalEdgeStyle;rounded=0;orthogonalLoop=1;jettySize=auto;html=1;shadow=1;sketch=1;curveFitting=1;jiggle=2;" edge="1" parent="WIyWlLk6GJQsqaUBKTNV-1" source="2u_29QZsNKRQgDJ0NMnE-0" target="2u_29QZsNKRQgDJ0NMnE-2">
          <mxGeometry relative="1" as="geometry" />
        </mxCell>
        <mxCell id="2u_29QZsNKRQgDJ0NMnE-0" value="sumar (x : int, y: int) -&amp;gt; int" style="rounded=0;whiteSpace=wrap;html=1;sketch=1;curveFitting=1;jiggle=2;fillColor=#fff2cc;strokeColor=#d6b656;" vertex="1" parent="WIyWlLk6GJQsqaUBKTNV-1">
          <mxGeometry x="150" y="80" width="190" height="80" as="geometry" />
        </mxCell>
        <mxCell id="2u_29QZsNKRQgDJ0NMnE-5" value="" style="edgeStyle=orthogonalEdgeStyle;rounded=0;orthogonalLoop=1;jettySize=auto;html=1;fillColor=#d5e8d4;strokeColor=#82b366;" edge="1" parent="WIyWlLk6GJQsqaUBKTNV-1" source="2u_29QZsNKRQgDJ0NMnE-2" target="2u_29QZsNKRQgDJ0NMnE-4">
          <mxGeometry relative="1" as="geometry" />
        </mxCell>
        <mxCell id="2u_29QZsNKRQgDJ0NMnE-2" value="result = 0" style="rounded=1;whiteSpace=wrap;html=1;fillColor=#d5e8d4;strokeColor=#82b366;" vertex="1" parent="WIyWlLk6GJQsqaUBKTNV-1">
          <mxGeometry x="165" y="208" width="160" height="50" as="geometry" />
        </mxCell>
        <mxCell id="2u_29QZsNKRQgDJ0NMnE-7" value="" style="edgeStyle=orthogonalEdgeStyle;rounded=0;orthogonalLoop=1;jettySize=auto;html=1;fillColor=#d5e8d4;strokeColor=#82b366;" edge="1" parent="WIyWlLk6GJQsqaUBKTNV-1" source="2u_29QZsNKRQgDJ0NMnE-4" target="2u_29QZsNKRQgDJ0NMnE-6">
          <mxGeometry relative="1" as="geometry" />
        </mxCell>
        <mxCell id="2u_29QZsNKRQgDJ0NMnE-4" value="result += x" style="rounded=1;whiteSpace=wrap;html=1;fillColor=#d5e8d4;strokeColor=#82b366;" vertex="1" parent="WIyWlLk6GJQsqaUBKTNV-1">
          <mxGeometry x="165" y="338" width="160" height="50" as="geometry" />
        </mxCell>
        <mxCell id="2u_29QZsNKRQgDJ0NMnE-9" value="" style="edgeStyle=orthogonalEdgeStyle;rounded=0;orthogonalLoop=1;jettySize=auto;html=1;fillColor=#d5e8d4;strokeColor=#82b366;" edge="1" parent="WIyWlLk6GJQsqaUBKTNV-1" source="2u_29QZsNKRQgDJ0NMnE-6" target="2u_29QZsNKRQgDJ0NMnE-8">
          <mxGeometry relative="1" as="geometry" />
        </mxCell>
        <mxCell id="2u_29QZsNKRQgDJ0NMnE-6" value="result += y" style="rounded=1;whiteSpace=wrap;html=1;fillColor=#d5e8d4;strokeColor=#82b366;" vertex="1" parent="WIyWlLk6GJQsqaUBKTNV-1">
          <mxGeometry x="165" y="468" width="160" height="50" as="geometry" />
        </mxCell>
        <mxCell id="2u_29QZsNKRQgDJ0NMnE-8" value="return result" style="rounded=1;whiteSpace=wrap;html=1;fillColor=#d5e8d4;strokeColor=#82b366;" vertex="1" parent="WIyWlLk6GJQsqaUBKTNV-1">
          <mxGeometry x="165" y="598" width="160" height="50" as="geometry" />
        </mxCell>
        <mxCell id="2u_29QZsNKRQgDJ0NMnE-10" value="&lt;h1&gt;Ejercicio 2&lt;/h1&gt;&lt;div&gt;TEST1: x=0 y=0 -&amp;gt; res = 0&lt;/div&gt;&lt;div&gt;TEST2: x=1 y=2 -&amp;gt; res = 3&lt;/div&gt;&lt;div&gt;TEST3: x=-1 y=2 -&amp;gt; res = 1&lt;/div&gt;&lt;div&gt;&lt;br&gt;&lt;/div&gt;&lt;div&gt;Ya con esto igual estamos de sobra. Cualquier test de estos ya pasa por todas las lineas del programa. Aunque sea uno&lt;/div&gt;" style="text;html=1;strokeColor=none;fillColor=none;spacing=5;spacingTop=-20;whiteSpace=wrap;overflow=hidden;rounded=0;" vertex="1" parent="WIyWlLk6GJQsqaUBKTNV-1">
          <mxGeometry x="390" y="80" width="190" height="200" as="geometry" />
        </mxCell>
      </root>
    </mxGraphModel>
  </diagram>
</mxfile>
